<?xml version="1.0" standalone="no"?>
<!DOCTYPE svg PUBLIC "-//W3C//DTD SVG 20010904//EN"
 "http://www.w3.org/TR/2001/REC-SVG-20010904/DTD/svg10.dtd">
<svg version="1.0" xmlns="http://www.w3.org/2000/svg"
 width="285.000000pt" height="179.000000pt" viewBox="0 0 285.000000 179.000000"
 preserveAspectRatio="xMidYMid meet">

<g transform="translate(0.000000,179.000000) scale(0.100000,-0.100000)"
fill="#000000" stroke="none">
<path d="M2193 1740 c0 -32 3 -47 10 -43 6 4 8 0 4 -10 -8 -22 2 -48 17 -41 6
3 2 -2 -8 -10 -11 -9 -15 -16 -10 -16 13 0 12 -43 -1 -52 -6 -5 -6 -8 2 -8 6
0 9 -9 6 -20 -3 -11 -2 -20 2 -20 4 0 104 37 223 81 229 86 412 166 412 180 0
5 -148 9 -329 9 l-328 0 0 -50z m14 -22 c-3 -8 -6 -5 -6 6 -1 11 2 17 5 13 3
-3 4 -12 1 -19z"/>
</g>
</svg>
